<?xml version="1.0" encoding="utf-8"?>
<!-- Generator: Adobe Illustrator 19.1.0, SVG Export Plug-In . SVG Version: 6.00 Build 0)  -->
<svg version="1.1" id="Livello_1" xmlns="http://www.w3.org/2000/svg" xmlns:xlink="http://www.w3.org/1999/xlink" x="0px" y="0px"
	 viewBox="0 0 40 40" style="enable-background:new 0 0 40 40;" xml:space="preserve">
<path class="st0" d="M21.7,20l9.8-9.8C32,9.7,32,9,31.5,8.5C31,8,30.3,8,29.8,8.5L20,18.3l-9.8-9.8C9.7,8,9,8,8.5,8.5
	C8,9,8,9.7,8.5,10.2l9.8,9.8l-9.8,9.8C8,30.3,8,31,8.5,31.5c0.2,0.2,0.6,0.4,0.9,0.4c0.3,0,0.6-0.1,0.9-0.4l9.8-9.8l9.8,9.8
	c0.2,0.2,0.6,0.4,0.9,0.4s0.6-0.1,0.9-0.4c0.5-0.5,0.5-1.3,0-1.7L21.7,20z"/>
</svg>
